REM GENRE "Symphonic Black Metal"
REM DATE 2000
REM DISCID 880C2C0A
REM COMMENT "ExactAudioCopy v1.0b3"
PERFORMER "The Kovenant"
TITLE "Nexus Polaris [Reissue 2009]"
FILE "01-The Kovenant-The Sulphur Feast.wav" WAVE
  TRACK 01 AUDIO
    TITLE "The Sulphur Feast"
    PERFORMER "The Kovenant"
    ISRC PLA640906605
    FLAGS DCP
    INDEX 01 00:00:00
FILE "02-The Kovenant-Bizarre Cosmic Industries.wav" WAVE
  TRACK 02 AUDIO
    TITLE "Bizarre Cosmic Industries"
    PERFORMER "The Kovenant"
    ISRC PLA640906606
    FLAGS DCP
    INDEX 01 00:00:00
FILE "03-The Kovenant-Planetarium.wav" WAVE
  TRACK 03 AUDIO
    TITLE "Planetarium"
    PERFORMER "The Kovenant"
    ISRC PLA640906607
    FLAGS DCP
    INDEX 01 00:00:00
FILE "04-The Kovenant-The Last Of Dragons.wav" WAVE
  TRACK 04 AUDIO
    TITLE "The Last Of Dragons"
    PERFORMER "The Kovenant"
    ISRC PLA640906608
    FLAGS DCP
    INDEX 01 00:00:00
FILE "05-The Kovenant-Bringer Of The Sixth Sun.wav" WAVE
  TRACK 05 AUDIO
    TITLE "Bringer Of The Sixth Sun"
    PERFORMER "The Kovenant"
    ISRC PLA640906609
    FLAGS DCP
    INDEX 01 00:00:00
FILE "06-The Kovenant-Dragonheart.wav" WAVE
  TRACK 06 AUDIO
    TITLE "Dragonheart"
    PERFORMER "The Kovenant"
    ISRC PLA640906610
    FLAGS DCP
    INDEX 01 00:00:00
FILE "07-The Kovenant-Planetary Black Elements.wav" WAVE
  TRACK 07 AUDIO
    TITLE "Planetary Black Elements"
    PERFORMER "The Kovenant"
    ISRC PLA640906611
    FLAGS DCP
    INDEX 01 00:00:00
FILE "08-The Kovenant-Chariots Of Thunder.wav" WAVE
  TRACK 08 AUDIO
    TITLE "Chariots Of Thunder"
    PERFORMER "The Kovenant"
    ISRC PLA640906612
    FLAGS DCP
    INDEX 01 00:00:00
FILE "09-The Kovenant-New World Order [Clubmix].wav" WAVE
  TRACK 09 AUDIO
    TITLE "New World Order [Clubmix]"
    PERFORMER "The Kovenant"
    ISRC PLA640906613
    FLAGS DCP
    INDEX 01 00:00:00
FILE "10-The Kovenant-New World Order [Metalmix].wav" WAVE
  TRACK 10 AUDIO
    TITLE "New World Order [Metalmix]"
    PERFORMER "The Kovenant"
    ISRC PLA640906614
    FLAGS DCP
    INDEX 01 00:00:00
